<?xml version="1.0" encoding="UTF-8" standalone="no"?>
<svg
   xmlns:dc="http://purl.org/dc/elements/1.1/"
   xmlns:cc="http://creativecommons.org/ns#"
   xmlns:rdf="http://www.w3.org/1999/02/22-rdf-syntax-ns#"
   xmlns:svg="http://www.w3.org/2000/svg"
   xmlns="http://www.w3.org/2000/svg"
   version="1.0"
   width="1235pt"
   height="1160.7831pt"
   viewBox="0 0 1235 1160.7831"
   preserveAspectRatio="xMidYMid meet"
   id="svg8">
  <defs
     id="defs12" />
  <metadata
     id="metadata2">
Created by potrace 1.15, written by Peter Selinger 2001-2017
<rdf:RDF>
  <cc:Work
     rdf:about="">
    <dc:format>image/svg+xml</dc:format>
    <dc:type
       rdf:resource="http://purl.org/dc/dcmitype/StillImage" />
    <dc:title></dc:title>
  </cc:Work>
</rdf:RDF>
</metadata>
  <path
     d="m 606.7,32.012637 c -6,18 -16.1,48.9 -22.7,68.700003 -6.5,19.8 -23.3,70.9 -37.3,113.5 -14.1,42.6 -36.7,111.4 -50.3,152.7 l -24.8,75.3 H 235.8 c -129.7,0 -235.8,0.3 -235.8,0.7 0,0.5 17,13 37.8,27.9 20.7,14.9 105.7,75.8 188.7,135.3 83.1,59.6 151.8,109.1 152.8,110 2,1.9 5.5,-9.4 -42,134.6 -18.7,57 -34.4,104.7 -62.8,190.99996 -14.1,42.9 -28.6,86.9 -32.2,97.8 -3.6,10.9 -6.3,20.1 -6,20.4 0.7,0.6 -23.6,18 191.2,-136.2 C 528.7,951.11264 613,890.61264 614.7,889.41264 l 3.3,-2.3 76.2,54.8 c 244.7,175.79996 305.3,219.09996 305.6,218.79996 0.2,-0.2 -4.6,-15.3 -10.6,-33.7 -6.1,-18.3 -21.6,-65.5 -34.6,-104.8 -51.1,-155.59996 -71.2,-216.79996 -81.1,-246.99996 -14.5,-44 -18.5,-56.3 -18.5,-57.5 0,-0.6 85.5,-62.3 190,-137.3 104.5,-75 190,-136.8 190,-137.3 0,-0.5 -90.9,-1 -235.7,-1.1 l -235.6,-0.3 -16.4,-50 c -9,-27.5 -27.2,-82.6 -40.3,-122.5 -13.1,-39.9 -38.3,-116.6 -56,-170.500003 -17.7,-53.9 -32.5,-98.2999997 -32.9,-98.6999997 -0.4,-0.5 -5.5,13.8999997 -11.4,31.9999997 z"
     id="path4"
     style="fill:#000000;stroke:none;stroke-width:0.1" />
</svg>
