<?xml version="1.0" encoding="UTF-8" standalone="no"?>
<svg
   xmlns:dc="http://purl.org/dc/elements/1.1/"
   xmlns:cc="http://creativecommons.org/ns#"
   xmlns:rdf="http://www.w3.org/1999/02/22-rdf-syntax-ns#"
   xmlns:svg="http://www.w3.org/2000/svg"
   xmlns="http://www.w3.org/2000/svg"
   version="1.0"
   width="618.09998pt"
   height="1160.7705pt"
   viewBox="0 0 618.09998 1160.7705"
   preserveAspectRatio="xMidYMid meet"
   id="svg8">
  <defs
     id="defs12" />
  <metadata
     id="metadata2">
Created by potrace 1.15, written by Peter Selinger 2001-2017
<rdf:RDF>
  <cc:Work
     rdf:about="">
    <dc:format>image/svg+xml</dc:format>
    <dc:type
       rdf:resource="http://purl.org/dc/dcmitype/StillImage" />
    <dc:title></dc:title>
  </cc:Work>
</rdf:RDF>
</metadata>
  <path
     d="m 606.7,32 c -6,18 -16.1,48.9 -22.7,68.7 -6.5,19.8 -23.3,70.9 -37.3,113.5 -14.1,42.6 -36.7,111.4 -50.3,152.7 l -24.8,75.3 H 235.8 C 106.1,442.2 0,442.5 0,442.9 c 0,0.5 17,13 37.8,27.9 20.7,14.9 105.7,75.8 188.7,135.3 83.1,59.6 151.8,109.1 152.8,110 2,1.9 5.5,-9.4 -42,134.6 -18.7,57 -34.4,104.7 -62.8,191 -14.1,42.9 -28.6,86.9 -32.2,97.8 -3.6,10.9 -6.3,20.1 -6,20.4 0.7,0.6 -23.6,18 191.2,-136.2 C 528.7,951.1 613,890.6 614.7,889.4 L 618,887.1 618.1,0 c 0,0 -5.5,13.9 -11.4,32 z"
     id="path4"
     style="fill:#000000;stroke:none;stroke-width:0.1" />
</svg>
